<svg xmlns="http://www.w3.org/2000/svg" width="19" height="19" fill="none" viewBox="0 0 19 19">
  <path fill="#fff" d="M9.68 2.16c1.204 0 1.994.003 2.369.011.375.008.798.02 1.267.035a6.63 6.63 0 0 1 1.044.14c.258.063.465.126.622.189a2.612 2.612 0 0 1 1.055.657c.157.156.286.316.388.48.101.165.191.356.27.575.062.157.125.364.187.622.063.258.11.606.14 1.044.017.47.028.892.036 1.267.008.375.012 1.165.012 2.37 0 1.204-.004 1.994-.012 2.37-.008.375-.02.797-.035 1.266a6.639 6.639 0 0 1-.14 1.044 4.748 4.748 0 0 1-.189.622 2.614 2.614 0 0 1-.656 1.055 2.684 2.684 0 0 1-.482.388 3.024 3.024 0 0 1-.574.27 4.715 4.715 0 0 1-.622.188 6.674 6.674 0 0 1-1.044.14c-.47.016-.892.028-1.267.035-.375.008-1.165.012-2.37.012-1.204 0-1.994-.004-2.37-.012-.375-.007-.797-.02-1.266-.035a6.627 6.627 0 0 1-1.044-.14 4.715 4.715 0 0 1-.622-.188 3.02 3.02 0 0 1-.575-.27 2.68 2.68 0 0 1-.48-.387 2.676 2.676 0 0 1-.388-.481 3.02 3.02 0 0 1-.27-.575 4.733 4.733 0 0 1-.188-.622 6.629 6.629 0 0 1-.14-1.044 83.05 83.05 0 0 1-.035-1.267 142.86 142.86 0 0 1-.012-2.37c0-1.204.004-1.994.012-2.369.007-.375.02-.798.035-1.267.031-.438.078-.786.14-1.044a4.73 4.73 0 0 1 .188-.622 2.626 2.626 0 0 1 .657-1.055c.157-.157.317-.286.481-.388.164-.101.356-.191.575-.27a4.73 4.73 0 0 1 .622-.187 6.63 6.63 0 0 1 1.044-.14c.469-.016.891-.028 1.267-.036a142.86 142.86 0 0 1 2.37-.012Zm0-1.62c-1.22 0-2.026.004-2.417.012a97.5 97.5 0 0 0-1.29.035A9.3 9.3 0 0 0 4.728.74c-.344.07-.665.16-.962.27a8.135 8.135 0 0 0-.821.422 3.91 3.91 0 0 0-.775.61c-.25.25-.453.508-.61.774-.156.266-.297.54-.422.821-.11.298-.2.618-.27.962a9.3 9.3 0 0 0-.152 1.244c-.016.469-.028.9-.035 1.29C.674 7.524.67 8.33.67 9.55c0 1.22.004 2.025.012 2.416.007.391.02.822.035 1.29.031.486.082.9.152 1.244.07.344.16.665.27.962.125.282.266.555.422.821.157.266.36.524.61.774s.509.454.775.61c.266.157.54.298.82.423.298.11.619.2.963.27s.758.12 1.243.152c.47.016.9.027 1.29.035.392.008 1.197.012 2.417.012 1.22 0 2.026-.004 2.417-.012.39-.008.821-.02 1.29-.035a9.33 9.33 0 0 0 1.244-.152c.344-.07.664-.16.962-.27.281-.125.555-.266.82-.422.267-.157.525-.36.775-.61s.454-.509.61-.775c.156-.266.297-.54.422-.82.11-.298.2-.619.27-.963a9.3 9.3 0 0 0 .153-1.243c.015-.47.027-.9.035-1.29.008-.392.012-1.197.012-2.417 0-1.22-.004-2.026-.012-2.417-.008-.39-.02-.821-.035-1.29a9.3 9.3 0 0 0-.153-1.244 6.617 6.617 0 0 0-.27-.962 8.13 8.13 0 0 0-.422-.82 3.896 3.896 0 0 0-.61-.775 3.896 3.896 0 0 0-.774-.61 8.137 8.137 0 0 0-.821-.422c-.298-.11-.618-.2-.962-.27a9.3 9.3 0 0 0-1.244-.153c-.469-.015-.9-.027-1.29-.035C11.705.544 10.899.54 9.679.54Zm.023 4.388a4.4 4.4 0 0 0-1.807.375 4.534 4.534 0 0 0-2.463 2.464 4.398 4.398 0 0 0-.376 1.806c0 .641.125 1.244.376 1.807.234.563.563 1.052.985 1.466a4.97 4.97 0 0 0 1.478.997 4.648 4.648 0 0 0 1.807.352 4.64 4.64 0 0 0 1.806-.352 4.817 4.817 0 0 0 1.467-.997 4.82 4.82 0 0 0 .997-1.466 4.65 4.65 0 0 0 .352-1.807 4.65 4.65 0 0 0-.352-1.806 4.972 4.972 0 0 0-.997-1.478 4.404 4.404 0 0 0-1.467-.986 4.398 4.398 0 0 0-1.806-.375Zm0 7.648a2.894 2.894 0 0 1-2.124-.88 2.893 2.893 0 0 1-.88-2.123c0-.829.294-1.537.88-2.123a2.893 2.893 0 0 1 2.124-.88 2.89 2.89 0 0 1 2.123.88 2.89 2.89 0 0 1 .88 2.123c0 .83-.293 1.537-.88 2.123a2.893 2.893 0 0 1-2.123.88Zm5.842-7.86c0 .298-.106.552-.317.763a1.04 1.04 0 0 1-.762.317 1.04 1.04 0 0 1-.763-.317 1.04 1.04 0 0 1-.317-.762 1 1 0 0 1 .317-.751 1.06 1.06 0 0 1 .763-.305c.297 0 .55.101.762.305a1 1 0 0 1 .317.75Z"/>
</svg>