<svg xmlns="http://www.w3.org/2000/svg" width="17" height="16" fill="none" viewBox="0 0 17 16">
  <path fill="#fff" d="M1.069 15.964h3.097V5.148H1.069v10.816ZM2.547 3.787h-.024c-.563 0-1.012-.18-1.349-.54C.838 2.888.67 2.443.67 1.91c0-.532.172-.977.516-1.337.344-.36.806-.54 1.384-.54.563 0 1.013.18 1.35.54.336.36.504.805.504 1.337 0 .532-.168.978-.505 1.338-.336.36-.793.54-1.372.54ZM16.6 15.964h-3.519V10.38c0-.735-.144-1.33-.434-1.783-.29-.454-.739-.68-1.349-.68-.453 0-.813.136-1.08.41a2.641 2.641 0 0 0-.586.903c-.047.11-.07.243-.07.4v6.334H6.066v-1.549c0-1.048.004-2.22.012-3.519.008-1.298.012-2.526.012-3.683 0-1.158-.008-1.846-.024-2.065h3.496v1.69c.094-.36.41-.748.95-1.162.54-.415 1.255-.622 2.147-.622 1.095 0 2.025.399 2.792 1.197.766.797 1.15 2.033 1.15 3.707v6.006Z"/>
</svg>