<svg xmlns="http://www.w3.org/2000/svg" width="20" height="17" fill="none" viewBox="0 0 20 17">
  <path fill="#fff" d="M19.909 8.377c0-.595-.211-1.095-.634-1.502a2.091 2.091 0 0 0-1.501-.61c-.282 0-.552.051-.81.153a1.938 1.938 0 0 0-.668.434c-.72-.485-1.557-.868-2.51-1.15a12.758 12.758 0 0 0-3.074-.493l1.196-3.73 3.214.75v.048c0 .469.169.876.505 1.22.336.344.747.516 1.232.516.484 0 .895-.172 1.231-.516.337-.344.505-.751.505-1.22 0-.485-.168-.896-.505-1.232A1.676 1.676 0 0 0 16.86.54c-.376 0-.708.102-.998.305a1.69 1.69 0 0 0-.621.798L11.767.822a.28.28 0 0 0-.21.035.355.355 0 0 0-.142.176L10.102 5.21a12.462 12.462 0 0 0-3.215.446c-1 .282-1.884.673-2.65 1.173a2.423 2.423 0 0 0-.646-.422 1.887 1.887 0 0 0-.786-.164c-.579 0-1.08.207-1.502.621A2.04 2.04 0 0 0 .67 8.377c0 .39.098.747.293 1.067.196.32.45.567.763.74l-.047.351c-.016.11-.024.227-.024.352 0 .782.227 1.517.68 2.206.454.688 1.068 1.29 1.842 1.806.775.516 1.686.923 2.734 1.22a12.16 12.16 0 0 0 3.331.446 12.25 12.25 0 0 0 3.355-.446c1.033-.297 1.94-.704 2.722-1.22s1.392-1.118 1.83-1.806c.454-.689.68-1.424.68-2.206a4.622 4.622 0 0 0-.047-.657c.329-.188.599-.442.81-.762a1.94 1.94 0 0 0 .317-1.091ZM6.113 9.83c0-.344.121-.64.364-.891.242-.25.543-.376.903-.376.344 0 .641.126.892.376.25.25.375.547.375.891 0 .345-.125.642-.375.892s-.548.375-.892.375c-.36 0-.66-.125-.903-.375a1.237 1.237 0 0 1-.364-.892Zm7.25 3.73c-.313.314-.724.548-1.232.705-.508.156-1.122.234-1.842.234s-1.333-.078-1.841-.234c-.509-.157-.92-.391-1.232-.704a.292.292 0 0 1-.094-.211c0-.079.031-.149.094-.212a.343.343 0 0 1 .21-.07c.08 0 .15.024.212.07.266.266.614.462 1.044.587.43.125.966.188 1.607.188.642 0 1.177-.063 1.607-.188.43-.125.779-.32 1.044-.587a.343.343 0 0 1 .212-.07c.078 0 .148.024.21.07a.292.292 0 0 1 .095.212.291.291 0 0 1-.094.21Zm-.141-2.463c-.36 0-.66-.125-.903-.375a1.238 1.238 0 0 1-.364-.892c0-.344.121-.64.364-.891.242-.25.543-.376.903-.376.344 0 .637.126.88.376.242.25.364.547.364.891 0 .345-.122.642-.364.892a1.18 1.18 0 0 1-.88.375Z"/>
</svg>