<svg xmlns="http://www.w3.org/2000/svg" width="18" height="16" fill="none" viewBox="0 0 18 16">
  <path fill="#fff" d="M1.847 7.034c1.142-.5 2.19-.955 3.144-1.361.954-.423 1.81-.798 2.569-1.126.759-.329 1.42-.61 1.983-.845.578-.25 1.055-.454 1.43-.61 2.175-.907 3.622-1.49 4.341-1.748.72-.258 1.228-.387 1.525-.387.063 0 .153.012.27.035a.703.703 0 0 1 .317.153.52.52 0 0 1 .164.21c.031.079.055.15.07.212.016.063.028.152.035.27.008.117.004.23-.011.34a60.195 60.195 0 0 1-.305 2.417c-.141.985-.297 2.021-.47 3.108a124.952 124.952 0 0 1-.54 3.156 73.86 73.86 0 0 1-.468 2.58c-.11.595-.262 1.01-.458 1.244-.195.235-.395.36-.598.376a1.914 1.914 0 0 1-1.255-.352 41.92 41.92 0 0 0-1.232-.822 91.637 91.637 0 0 1-1.76-1.184 143.72 143.72 0 0 0-1.736-1.185c-.782-.5-1.032-.927-.75-1.279.28-.352.64-.755 1.079-1.208.062-.063.32-.297.774-.704.438-.422.919-.88 1.443-1.373.524-.492.997-.95 1.42-1.372.437-.422.664-.68.68-.774.015-.016.02-.055.011-.118a.188.188 0 0 0-.082-.14.225.225 0 0 0-.164-.07.52.52 0 0 0-.164.023c-.032.015-.196.117-.493.305-.281.172-.7.442-1.255.81a137.3 137.3 0 0 0-2.03 1.372c-.813.531-1.751 1.157-2.815 1.877a3.757 3.757 0 0 1-.903.48c-.29.102-.56.153-.81.153-.281 0-.657-.062-1.126-.188-.47-.125-.907-.25-1.314-.375a88.02 88.02 0 0 1-1.232-.446c-.336-.125-.488-.32-.457-.586.016-.141.121-.286.317-.434.195-.149.48-.294.856-.434Z"/>
</svg>