<svg xmlns="http://www.w3.org/2000/svg" width="18" height="15" fill="none" viewBox="0 0 18 15">
  <path fill="#fff" d="M15.685 2.693a3.36 3.36 0 0 0 .939-.856c.266-.352.461-.747.587-1.185-.345.22-.7.403-1.068.551a7.74 7.74 0 0 1-1.161.364 3.476 3.476 0 0 0-1.127-.856 3.2 3.2 0 0 0-1.407-.317c-.97 0-1.795.36-2.475 1.08-.68.719-1.021 1.587-1.021 2.604a3.82 3.82 0 0 0 .094.844 10.634 10.634 0 0 1-2.112-.352 10.387 10.387 0 0 1-1.924-.797 9.113 9.113 0 0 1-1.712-1.197 11.002 11.002 0 0 1-1.455-1.502 4.33 4.33 0 0 0-.34.868 3.7 3.7 0 0 0-.13.986c0 .626.142 1.208.423 1.748.282.54.657.973 1.126 1.302-.281 0-.555-.043-.82-.13a4.6 4.6 0 0 1-.752-.316v.047c0 .892.266 1.674.798 2.346.532.673 1.197 1.087 1.994 1.244a2.65 2.65 0 0 1-.446.105 3.16 3.16 0 0 1-.469.036 4.61 4.61 0 0 1-.328-.012 1.61 1.61 0 0 1-.329-.059 3.594 3.594 0 0 0 1.22 1.818 3.283 3.283 0 0 0 2.042.74c-.595.5-1.263.887-2.006 1.16a6.7 6.7 0 0 1-2.335.411c-.14 0-.281-.004-.422-.011a5.778 5.778 0 0 1-.4-.035 9.374 9.374 0 0 0 2.511 1.231c.908.29 1.854.434 2.84.434 1.595 0 3.01-.32 4.246-.962 1.236-.64 2.276-1.462 3.12-2.463a10.299 10.299 0 0 0 1.9-3.379 10.94 10.94 0 0 0 .658-3.683v-.47c.344-.266.66-.56.95-.88.29-.32.551-.661.786-1.02-.313.14-.638.257-.974.351a7.626 7.626 0 0 1-1.02.211Z"/>
</svg>