<svg xmlns="http://www.w3.org/2000/svg" width="21" height="15" fill="none" viewBox="0 0 21 15">
  <path fill="#fff" d="M20.284 2.233A2.533 2.533 0 0 0 19.111.708a2.058 2.058 0 0 0-.61-.235c-.391-.11-1.017-.195-1.877-.258a137.09 137.09 0 0 0-2.616-.117A66.415 66.415 0 0 0 11.697.05H9.679c-.657 0-1.427.016-2.31.047-.884.031-1.756.07-2.617.117-.86.063-1.486.149-1.877.258a2.058 2.058 0 0 0-.61.235 2.532 2.532 0 0 0-.915.915 2.65 2.65 0 0 0-.258.61C.89 3.015.768 4.012.73 5.224L.67 7.043l.06 1.83c.039 1.22.16 2.22.363 3.003.063.203.149.402.258.598a2.4 2.4 0 0 0 .4.528c.156.14.328.27.515.387.188.117.391.2.61.246.391.11 1.017.188 1.877.235.86.063 1.733.106 2.616.129l2.311.059h2.018l2.311-.059a56.88 56.88 0 0 0 2.616-.13c.86-.046 1.486-.124 1.877-.234.219-.047.422-.129.61-.246.188-.117.36-.246.516-.387.157-.157.29-.333.399-.528.11-.196.195-.395.258-.598.203-.782.325-1.783.364-3.003l.058-1.83-.058-1.819c-.04-1.212-.16-2.21-.364-2.991Zm-11.59 7.813V4.039l5.185 3.004-5.185 3.003Z"/>
</svg>